<svg width="793" height="114" viewBox="0 0 793 114" fill="none" xmlns="http://www.w3.org/2000/svg">
<path d="M793 61L112 61" stroke="#DF991B" stroke-width="1.5"/>
<mask id="path-2-inside-1_3617_3" fill="white">
<path fill-rule="evenodd" clip-rule="evenodd" d="M56.188 113.623C56.1882 113.623 56.1884 113.623 56.1885 113.623C87.5647 113.623 113 88.1878 113 56.8116C113 25.4354 87.5647 0 56.1885 0C56.1884 0 56.1882 2.63496e-09 56.188 2.63496e-09V113.623Z"/>
</mask>
<path d="M56.188 113.623H55.188V114.623H56.188V113.623ZM56.188 2.63496e-09V-1H55.188V2.63496e-09H56.188ZM56.1885 112.623C56.1885 112.623 56.1885 112.623 56.1885 112.623C56.1885 112.623 56.1885 112.623 56.1885 112.623C56.1885 112.623 56.1885 112.623 56.1885 112.623C56.1885 112.623 56.1885 112.623 56.1885 112.623C56.1885 112.623 56.1885 112.623 56.1885 112.623C56.1885 112.623 56.1885 112.623 56.1885 112.623C56.1885 112.623 56.1885 112.623 56.1885 112.623C56.1885 112.623 56.1885 112.623 56.1885 112.623C56.1885 112.623 56.1885 112.623 56.1885 112.623C56.1885 112.623 56.1885 112.623 56.1885 112.623C56.1885 112.623 56.1885 112.623 56.1885 112.623C56.1885 112.623 56.1885 112.623 56.1885 112.623C56.1885 112.623 56.1885 112.623 56.1885 112.623C56.1885 112.623 56.1885 112.623 56.1885 112.623C56.1885 112.623 56.1885 112.623 56.1885 112.623C56.1885 112.623 56.1885 112.623 56.1885 112.623C56.1885 112.623 56.1885 112.623 56.1885 112.623C56.1885 112.623 56.1885 112.623 56.1885 112.623C56.1885 112.623 56.1885 112.623 56.1885 112.623C56.1885 112.623 56.1885 112.623 56.1885 112.623C56.1885 112.623 56.1885 112.623 56.1885 112.623C56.1885 112.623 56.1885 112.623 56.1885 112.623C56.1885 112.623 56.1885 112.623 56.1885 112.623C56.1885 112.623 56.1885 112.623 56.1885 112.623C56.1885 112.623 56.1885 112.623 56.1885 112.623C56.1885 112.623 56.1885 112.623 56.1885 112.623C56.1885 112.623 56.1885 112.623 56.1885 112.623C56.1885 112.623 56.1885 112.623 56.1885 112.623C56.1885 112.623 56.1885 112.623 56.1885 112.623C56.1885 112.623 56.1885 112.623 56.1885 112.623C56.1885 112.623 56.1885 112.623 56.1885 112.623C56.1885 112.623 56.1885 112.623 56.1885 112.623C56.1885 112.623 56.1885 112.623 56.1885 112.623C56.1885 112.623 56.1885 112.623 56.1885 112.623C56.1885 112.623 56.1885 112.623 56.1885 112.623C56.1885 112.623 56.1885 112.623 56.1885 112.623C56.1885 112.623 56.1885 112.623 56.1885 112.623C56.1885 112.623 56.1885 112.623 56.1885 112.623C56.1885 112.623 56.1885 112.623 56.1885 112.623C56.1885 112.623 56.1885 112.623 56.1885 112.623C56.1885 112.623 56.1885 112.623 56.1885 112.623C56.1885 112.623 56.1885 112.623 56.1885 112.623C56.1885 112.623 56.1885 112.623 56.1885 112.623C56.1885 112.623 56.1885 112.623 56.1885 112.623C56.1885 112.623 56.1885 112.623 56.1885 112.623C56.1885 112.623 56.1885 112.623 56.1885 112.623C56.1885 112.623 56.1885 112.623 56.1885 112.623C56.1885 112.623 56.1885 112.623 56.1885 112.623C56.1885 112.623 56.1885 112.623 56.1885 112.623C56.1885 112.623 56.1885 112.623 56.1885 112.623C56.1885 112.623 56.1885 112.623 56.1885 112.623C56.1885 112.623 56.1885 112.623 56.1885 112.623C56.1885 112.623 56.1885 112.623 56.1885 112.623C56.1885 112.623 56.1885 112.623 56.1885 112.623C56.1885 112.623 56.1885 112.623 56.1885 112.623C56.1885 112.623 56.1885 112.623 56.1885 112.623C56.1885 112.623 56.1885 112.623 56.1885 112.623C56.1885 112.623 56.1885 112.623 56.1885 112.623C56.1885 112.623 56.1885 112.623 56.1885 112.623C56.1885 112.623 56.1885 112.623 56.1885 112.623C56.1885 112.623 56.1885 112.623 56.1885 112.623C56.1885 112.623 56.1885 112.623 56.1885 112.623C56.1885 112.623 56.1885 112.623 56.1885 112.623C56.1885 112.623 56.1885 112.623 56.1885 112.623C56.1885 112.623 56.1885 112.623 56.1885 112.623C56.1885 112.623 56.1885 112.623 56.1885 112.623C56.1885 112.623 56.1885 112.623 56.1885 112.623C56.1885 112.623 56.1885 112.623 56.1885 112.623C56.1885 112.623 56.1885 112.623 56.1885 112.623C56.1885 112.623 56.1885 112.623 56.1885 112.623C56.1885 112.623 56.1885 112.623 56.1885 112.623C56.1885 112.623 56.1885 112.623 56.1885 112.623C56.1885 112.623 56.1885 112.623 56.1885 112.623C56.1885 112.623 56.1885 112.623 56.1885 112.623C56.1885 112.623 56.1885 112.623 56.1885 112.623C56.1885 112.623 56.1885 112.623 56.1885 112.623C56.1885 112.623 56.1885 112.623 56.1885 112.623C56.1885 112.623 56.1885 112.623 56.1885 112.623C56.1885 112.623 56.1885 112.623 56.1885 112.623C56.1885 112.623 56.1885 112.623 56.1885 112.623C56.1885 112.623 56.1885 112.623 56.1885 112.623C56.1885 112.623 56.1885 112.623 56.1885 112.623C56.1885 112.623 56.1885 112.623 56.1885 112.623C56.1885 112.623 56.1885 112.623 56.1885 112.623C56.1885 112.623 56.1884 112.623 56.1884 112.623C56.1884 112.623 56.1884 112.623 56.1884 112.623C56.1884 112.623 56.1884 112.623 56.1884 112.623C56.1884 112.623 56.1884 112.623 56.1884 112.623C56.1884 112.623 56.1884 112.623 56.1884 112.623C56.1884 112.623 56.1884 112.623 56.1884 112.623C56.1884 112.623 56.1884 112.623 56.1884 112.623C56.1884 112.623 56.1884 112.623 56.1884 112.623C56.1884 112.623 56.1884 112.623 56.1884 112.623C56.1884 112.623 56.1884 112.623 56.1884 112.623C56.1884 112.623 56.1884 112.623 56.1884 112.623C56.1884 112.623 56.1884 112.623 56.1884 112.623C56.1884 112.623 56.1884 112.623 56.1884 112.623C56.1884 112.623 56.1884 112.623 56.1884 112.623C56.1884 112.623 56.1884 112.623 56.1884 112.623C56.1884 112.623 56.1884 112.623 56.1884 112.623C56.1884 112.623 56.1884 112.623 56.1884 112.623C56.1884 112.623 56.1884 112.623 56.1884 112.623C56.1884 112.623 56.1884 112.623 56.1884 112.623C56.1884 112.623 56.1884 112.623 56.1884 112.623C56.1884 112.623 56.1884 112.623 56.1884 112.623C56.1884 112.623 56.1884 112.623 56.1884 112.623C56.1884 112.623 56.1884 112.623 56.1884 112.623C56.1884 112.623 56.1884 112.623 56.1884 112.623C56.1884 112.623 56.1884 112.623 56.1884 112.623C56.1884 112.623 56.1884 112.623 56.1884 112.623C56.1884 112.623 56.1884 112.623 56.1884 112.623C56.1884 112.623 56.1884 112.623 56.1884 112.623C56.1884 112.623 56.1884 112.623 56.1884 112.623C56.1884 112.623 56.1884 112.623 56.1884 112.623C56.1884 112.623 56.1884 112.623 56.1884 112.623C56.1884 112.623 56.1884 112.623 56.1884 112.623C56.1884 112.623 56.1884 112.623 56.1884 112.623C56.1884 112.623 56.1884 112.623 56.1884 112.623C56.1884 112.623 56.1884 112.623 56.1884 112.623C56.1884 112.623 56.1884 112.623 56.1884 112.623C56.1884 112.623 56.1884 112.623 56.1884 112.623C56.1884 112.623 56.1884 112.623 56.1884 112.623C56.1884 112.623 56.1884 112.623 56.1884 112.623C56.1884 112.623 56.1884 112.623 56.1884 112.623C56.1884 112.623 56.1884 112.623 56.1884 112.623C56.1884 112.623 56.1884 112.623 56.1884 112.623C56.1884 112.623 56.1884 112.623 56.1884 112.623C56.1884 112.623 56.1884 112.623 56.1884 112.623C56.1884 112.623 56.1884 112.623 56.1884 112.623C56.1884 112.623 56.1884 112.623 56.1884 112.623C56.1884 112.623 56.1884 112.623 56.1884 112.623C56.1884 112.623 56.1884 112.623 56.1884 112.623C56.1884 112.623 56.1884 112.623 56.1884 112.623C56.1884 112.623 56.1884 112.623 56.1884 112.623C56.1884 112.623 56.1884 112.623 56.1884 112.623C56.1884 112.623 56.1884 112.623 56.1884 112.623C56.1884 112.623 56.1884 112.623 56.1884 112.623C56.1884 112.623 56.1884 112.623 56.1884 112.623C56.1884 112.623 56.1884 112.623 56.1884 112.623C56.1884 112.623 56.1884 112.623 56.1884 112.623C56.1884 112.623 56.1884 112.623 56.1884 112.623C56.1884 112.623 56.1884 112.623 56.1884 112.623C56.1884 112.623 56.1884 112.623 56.1884 112.623C56.1884 112.623 56.1884 112.623 56.1884 112.623C56.1884 112.623 56.1884 112.623 56.1884 112.623C56.1884 112.623 56.1884 112.623 56.1884 112.623C56.1884 112.623 56.1884 112.623 56.1884 112.623C56.1884 112.623 56.1884 112.623 56.1884 112.623C56.1884 112.623 56.1884 112.623 56.1884 112.623C56.1884 112.623 56.1884 112.623 56.1884 112.623C56.1884 112.623 56.1884 112.623 56.1884 112.623C56.1884 112.623 56.1884 112.623 56.1884 112.623C56.1884 112.623 56.1884 112.623 56.1884 112.623C56.1884 112.623 56.1884 112.623 56.1884 112.623C56.1884 112.623 56.1884 112.623 56.1884 112.623C56.1884 112.623 56.1884 112.623 56.1884 112.623C56.1884 112.623 56.1884 112.623 56.1884 112.623C56.1884 112.623 56.1884 112.623 56.1884 112.623C56.1884 112.623 56.1884 112.623 56.1884 112.623C56.1884 112.623 56.1884 112.623 56.1884 112.623C56.1884 112.623 56.1884 112.623 56.1884 112.623C56.1884 112.623 56.1884 112.623 56.1884 112.623C56.1884 112.623 56.1884 112.623 56.1884 112.623C56.1884 112.623 56.1884 112.623 56.1884 112.623C56.1884 112.623 56.1884 112.623 56.1884 112.623C56.1884 112.623 56.1884 112.623 56.1884 112.623C56.1884 112.623 56.1884 112.623 56.1884 112.623C56.1884 112.623 56.1884 112.623 56.1884 112.623C56.1884 112.623 56.1884 112.623 56.1884 112.623C56.1884 112.623 56.1884 112.623 56.1884 112.623C56.1884 112.623 56.1884 112.623 56.1884 112.623C56.1884 112.623 56.1884 112.623 56.1884 112.623C56.1884 112.623 56.1884 112.623 56.1884 112.623C56.1884 112.623 56.1884 112.623 56.1884 112.623C56.1884 112.623 56.1884 112.623 56.1884 112.623C56.1884 112.623 56.1884 112.623 56.1884 112.623C56.1884 112.623 56.1884 112.623 56.1884 112.623C56.1883 112.623 56.1883 112.623 56.1883 112.623C56.1883 112.623 56.1883 112.623 56.1883 112.623C56.1883 112.623 56.1883 112.623 56.1883 112.623C56.1883 112.623 56.1883 112.623 56.1883 112.623C56.1883 112.623 56.1883 112.623 56.1883 112.623C56.1883 112.623 56.1883 112.623 56.1883 112.623C56.1883 112.623 56.1883 112.623 56.1883 112.623C56.1883 112.623 56.1883 112.623 56.1883 112.623C56.1883 112.623 56.1883 112.623 56.1883 112.623C56.1883 112.623 56.1883 112.623 56.1883 112.623C56.1883 112.623 56.1883 112.623 56.1883 112.623C56.1883 112.623 56.1883 112.623 56.1883 112.623C56.1883 112.623 56.1883 112.623 56.1883 112.623C56.1883 112.623 56.1883 112.623 56.1883 112.623C56.1883 112.623 56.1883 112.623 56.1883 112.623C56.1883 112.623 56.1883 112.623 56.1883 112.623C56.1883 112.623 56.1883 112.623 56.1883 112.623C56.1883 112.623 56.1883 112.623 56.1883 112.623C56.1883 112.623 56.1883 112.623 56.1883 112.623C56.1883 112.623 56.1883 112.623 56.1883 112.623C56.1883 112.623 56.1883 112.623 56.1883 112.623C56.1883 112.623 56.1883 112.623 56.1883 112.623C56.1883 112.623 56.1883 112.623 56.1883 112.623C56.1883 112.623 56.1883 112.623 56.1883 112.623C56.1883 112.623 56.1883 112.623 56.1883 112.623C56.1883 112.623 56.1883 112.623 56.1883 112.623C56.1883 112.623 56.1883 112.623 56.1883 112.623C56.1883 112.623 56.1883 112.623 56.1883 112.623C56.1883 112.623 56.1883 112.623 56.1883 112.623C56.1883 112.623 56.1883 112.623 56.1883 112.623C56.1883 112.623 56.1883 112.623 56.1883 112.623C56.1883 112.623 56.1883 112.623 56.1883 112.623C56.1883 112.623 56.1883 112.623 56.1883 112.623C56.1883 112.623 56.1883 112.623 56.1883 112.623C56.1883 112.623 56.1883 112.623 56.1883 112.623C56.1883 112.623 56.1883 112.623 56.1883 112.623C56.1883 112.623 56.1883 112.623 56.1883 112.623C56.1883 112.623 56.1883 112.623 56.1883 112.623C56.1883 112.623 56.1883 112.623 56.1883 112.623C56.1883 112.623 56.1883 112.623 56.1883 112.623C56.1883 112.623 56.1883 112.623 56.1883 112.623C56.1883 112.623 56.1883 112.623 56.1883 112.623C56.1883 112.623 56.1883 112.623 56.1883 112.623C56.1883 112.623 56.1883 112.623 56.1883 112.623C56.1883 112.623 56.1883 112.623 56.1883 112.623C56.1883 112.623 56.1883 112.623 56.1883 112.623C56.1883 112.623 56.1883 112.623 56.1883 112.623C56.1883 112.623 56.1883 112.623 56.1883 112.623C56.1883 112.623 56.1883 112.623 56.1883 112.623C56.1883 112.623 56.1883 112.623 56.1883 112.623C56.1883 112.623 56.1883 112.623 56.1883 112.623C56.1883 112.623 56.1883 112.623 56.1883 112.623C56.1883 112.623 56.1883 112.623 56.1883 112.623C56.1883 112.623 56.1883 112.623 56.1883 112.623C56.1883 112.623 56.1883 112.623 56.1883 112.623C56.1883 112.623 56.1883 112.623 56.1883 112.623C56.1883 112.623 56.1883 112.623 56.1883 112.623C56.1883 112.623 56.1883 112.623 56.1883 112.623C56.1883 112.623 56.1883 112.623 56.1883 112.623C56.1883 112.623 56.1883 112.623 56.1883 112.623C56.1883 112.623 56.1883 112.623 56.1883 112.623C56.1883 112.623 56.1883 112.623 56.1883 112.623C56.1883 112.623 56.1883 112.623 56.1883 112.623C56.1883 112.623 56.1883 112.623 56.1883 112.623C56.1883 112.623 56.1883 112.623 56.1883 112.623C56.1883 112.623 56.1883 112.623 56.1883 112.623C56.1883 112.623 56.1883 112.623 56.1883 112.623C56.1883 112.623 56.1883 112.623 56.1883 112.623C56.1883 112.623 56.1883 112.623 56.1883 112.623C56.1883 112.623 56.1883 112.623 56.1883 112.623C56.1883 112.623 56.1883 112.623 56.1883 112.623C56.1883 112.623 56.1883 112.623 56.1883 112.623C56.1883 112.623 56.1883 112.623 56.1883 112.623C56.1883 112.623 56.1883 112.623 56.1883 112.623C56.1883 112.623 56.1883 112.623 56.1883 112.623C56.1883 112.623 56.1883 112.623 56.1883 112.623C56.1883 112.623 56.1883 112.623 56.1883 112.623C56.1883 112.623 56.1883 112.623 56.1883 112.623C56.1883 112.623 56.1883 112.623 56.1883 112.623C56.1883 112.623 56.1883 112.623 56.1883 112.623C56.1883 112.623 56.1883 112.623 56.1883 112.623C56.1883 112.623 56.1883 112.623 56.1883 112.623C56.1883 112.623 56.1883 112.623 56.1883 112.623C56.1883 112.623 56.1883 112.623 56.1883 112.623C56.1883 112.623 56.1883 112.623 56.1883 112.623C56.1883 112.623 56.1883 112.623 56.1883 112.623C56.1883 112.623 56.1883 112.623 56.1883 112.623C56.1883 112.623 56.1883 112.623 56.1883 112.623C56.1883 112.623 56.1883 112.623 56.1883 112.623C56.1883 112.623 56.1883 112.623 56.1883 112.623C56.1883 112.623 56.1883 112.623 56.1883 112.623C56.1883 112.623 56.1883 112.623 56.1883 112.623C56.1883 112.623 56.1883 112.623 56.1882 112.623C56.1882 112.623 56.1882 112.623 56.1882 112.623C56.1882 112.623 56.1882 112.623 56.1882 112.623C56.1882 112.623 56.1882 112.623 56.1882 112.623C56.1882 112.623 56.1882 112.623 56.1882 112.623C56.1882 112.623 56.1882 112.623 56.1882 112.623C56.1882 112.623 56.1882 112.623 56.1882 112.623C56.1882 112.623 56.1882 112.623 56.1882 112.623C56.1882 112.623 56.1882 112.623 56.1882 112.623C56.1882 112.623 56.1882 112.623 56.1882 112.623C56.1882 112.623 56.1882 112.623 56.1882 112.623C56.1882 112.623 56.1882 112.623 56.1882 112.623C56.1882 112.623 56.1882 112.623 56.1882 112.623C56.1882 112.623 56.1882 112.623 56.1882 112.623C56.1882 112.623 56.1882 112.623 56.1882 112.623C56.1882 112.623 56.1882 112.623 56.1882 112.623C56.1882 112.623 56.1882 112.623 56.1882 112.623C56.1882 112.623 56.1882 112.623 56.1882 112.623C56.1882 112.623 56.1882 112.623 56.1882 112.623C56.1882 112.623 56.1882 112.623 56.1882 112.623C56.1882 112.623 56.1882 112.623 56.1882 112.623C56.1882 112.623 56.1882 112.623 56.1882 112.623C56.1882 112.623 56.1882 112.623 56.1882 112.623C56.1882 112.623 56.1882 112.623 56.1882 112.623C56.1882 112.623 56.1882 112.623 56.1882 112.623C56.1882 112.623 56.1882 112.623 56.1882 112.623C56.1882 112.623 56.1882 112.623 56.1882 112.623C56.1882 112.623 56.1882 112.623 56.1882 112.623C56.1882 112.623 56.1882 112.623 56.1882 112.623C56.1882 112.623 56.1882 112.623 56.1882 112.623C56.1882 112.623 56.1882 112.623 56.1882 112.623C56.1882 112.623 56.1882 112.623 56.1882 112.623C56.1882 112.623 56.1882 112.623 56.1882 112.623C56.1882 112.623 56.1882 112.623 56.1882 112.623C56.1882 112.623 56.1882 112.623 56.1882 112.623C56.1882 112.623 56.1882 112.623 56.1882 112.623C56.1882 112.623 56.1882 112.623 56.1882 112.623C56.1882 112.623 56.1882 112.623 56.1882 112.623C56.1882 112.623 56.1882 112.623 56.1882 112.623C56.1882 112.623 56.1882 112.623 56.1882 112.623C56.1882 112.623 56.1882 112.623 56.1882 112.623C56.1882 112.623 56.1882 112.623 56.1882 112.623C56.1882 112.623 56.1882 112.623 56.1882 112.623C56.1882 112.623 56.1882 112.623 56.1882 112.623C56.1882 112.623 56.1882 112.623 56.1882 112.623C56.1882 112.623 56.1882 112.623 56.1882 112.623C56.1882 112.623 56.1882 112.623 56.1882 112.623C56.1882 112.623 56.1882 112.623 56.1882 112.623C56.1882 112.623 56.1882 112.623 56.1882 112.623C56.1882 112.623 56.1882 112.623 56.1882 112.623C56.1882 112.623 56.1882 112.623 56.1882 112.623C56.1882 112.623 56.1882 112.623 56.1882 112.623C56.1882 112.623 56.1882 112.623 56.1882 112.623C56.1882 112.623 56.1882 112.623 56.1882 112.623C56.1882 112.623 56.1882 112.623 56.1882 112.623C56.1882 112.623 56.1882 112.623 56.1882 112.623C56.1882 112.623 56.1882 112.623 56.1882 112.623C56.1882 112.623 56.1882 112.623 56.1882 112.623C56.1882 112.623 56.1882 112.623 56.1882 112.623C56.1882 112.623 56.1882 112.623 56.1882 112.623C56.1882 112.623 56.1882 112.623 56.1882 112.623C56.1882 112.623 56.1882 112.623 56.1882 112.623C56.1882 112.623 56.1882 112.623 56.1882 112.623C56.1882 112.623 56.1882 112.623 56.1882 112.623C56.1882 112.623 56.1882 112.623 56.1882 112.623C56.1882 112.623 56.1882 112.623 56.1882 112.623C56.1882 112.623 56.1882 112.623 56.1882 112.623C56.1882 112.623 56.1882 112.623 56.1882 112.623C56.1882 112.623 56.1882 112.623 56.1882 112.623C56.1882 112.623 56.1882 112.623 56.1882 112.623C56.1882 112.623 56.1882 112.623 56.1882 112.623C56.1882 112.623 56.1882 112.623 56.1882 112.623C56.1882 112.623 56.1882 112.623 56.1882 112.623C56.1882 112.623 56.1882 112.623 56.1882 112.623C56.1882 112.623 56.1882 112.623 56.1882 112.623C56.1882 112.623 56.1882 112.623 56.1882 112.623C56.1882 112.623 56.1882 112.623 56.1882 112.623C56.1882 112.623 56.1882 112.623 56.1882 112.623C56.1882 112.623 56.1882 112.623 56.1882 112.623C56.1882 112.623 56.1882 112.623 56.1882 112.623C56.1882 112.623 56.1882 112.623 56.1882 112.623C56.1882 112.623 56.1882 112.623 56.1882 112.623C56.1882 112.623 56.1882 112.623 56.1882 112.623C56.1882 112.623 56.1882 112.623 56.1882 112.623C56.1882 112.623 56.1882 112.623 56.1882 112.623C56.1882 112.623 56.1882 112.623 56.1882 112.623C56.1882 112.623 56.1882 112.623 56.1882 112.623C56.1882 112.623 56.1882 112.623 56.1882 112.623C56.1882 112.623 56.1882 112.623 56.1882 112.623C56.1882 112.623 56.1882 112.623 56.1882 112.623C56.1882 112.623 56.1882 112.623 56.1882 112.623C56.1882 112.623 56.1882 112.623 56.1882 112.623C56.1882 112.623 56.1882 112.623 56.1882 112.623C56.1881 112.623 56.1881 112.623 56.1881 112.623C56.1881 112.623 56.1881 112.623 56.1881 112.623C56.1881 112.623 56.1881 112.623 56.1881 112.623C56.1881 112.623 56.1881 112.623 56.1881 112.623C56.1881 112.623 56.1881 112.623 56.1881 112.623C56.1881 112.623 56.1881 112.623 56.1881 112.623C56.1881 112.623 56.1881 112.623 56.1881 112.623C56.1881 112.623 56.1881 112.623 56.1881 112.623C56.1881 112.623 56.1881 112.623 56.1881 112.623C56.1881 112.623 56.1881 112.623 56.1881 112.623C56.1881 112.623 56.1881 112.623 56.1881 112.623C56.1881 112.623 56.1881 112.623 56.1881 112.623C56.1881 112.623 56.1881 112.623 56.1881 112.623C56.1881 112.623 56.1881 112.623 56.1881 112.623C56.1881 112.623 56.1881 112.623 56.1881 112.623C56.1881 112.623 56.1881 112.623 56.1881 112.623C56.1881 112.623 56.1881 112.623 56.1881 112.623C56.1881 112.623 56.1881 112.623 56.1881 112.623C56.1881 112.623 56.1881 112.623 56.1881 112.623C56.1881 112.623 56.1881 112.623 56.1881 112.623C56.1881 112.623 56.1881 112.623 56.1881 112.623C56.1881 112.623 56.1881 112.623 56.1881 112.623C56.1881 112.623 56.1881 112.623 56.1881 112.623C56.1881 112.623 56.1881 112.623 56.1881 112.623C56.1881 112.623 56.1881 112.623 56.1881 112.623C56.1881 112.623 56.1881 112.623 56.1881 112.623C56.1881 112.623 56.1881 112.623 56.1881 112.623C56.1881 112.623 56.1881 112.623 56.1881 112.623C56.1881 112.623 56.1881 112.623 56.1881 112.623C56.1881 112.623 56.1881 112.623 56.1881 112.623C56.1881 112.623 56.1881 112.623 56.1881 112.623C56.1881 112.623 56.1881 112.623 56.1881 112.623C56.1881 112.623 56.1881 112.623 56.1881 112.623C56.1881 112.623 56.1881 112.623 56.1881 112.623C56.1881 112.623 56.1881 112.623 56.1881 112.623C56.1881 112.623 56.1881 112.623 56.1881 112.623C56.1881 112.623 56.1881 112.623 56.1881 112.623C56.1881 112.623 56.1881 112.623 56.1881 112.623C56.1881 112.623 56.1881 112.623 56.1881 112.623C56.1881 112.623 56.1881 112.623 56.1881 112.623C56.1881 112.623 56.1881 112.623 56.1881 112.623C56.1881 112.623 56.1881 112.623 56.1881 112.623C56.1881 112.623 56.1881 112.623 56.1881 112.623C56.1881 112.623 56.1881 112.623 56.1881 112.623C56.1881 112.623 56.1881 112.623 56.1881 112.623C56.1881 112.623 56.1881 112.623 56.1881 112.623C56.1881 112.623 56.1881 112.623 56.1881 112.623C56.1881 112.623 56.1881 112.623 56.1881 112.623C56.1881 112.623 56.1881 112.623 56.1881 112.623C56.1881 112.623 56.1881 112.623 56.1881 112.623C56.1881 112.623 56.1881 112.623 56.1881 112.623C56.1881 112.623 56.1881 112.623 56.1881 112.623C56.1881 112.623 56.1881 112.623 56.1881 112.623C56.1881 112.623 56.1881 112.623 56.1881 112.623C56.1881 112.623 56.1881 112.623 56.1881 112.623C56.1881 112.623 56.1881 112.623 56.1881 112.623C56.1881 112.623 56.1881 112.623 56.1881 112.623C56.1881 112.623 56.1881 112.623 56.1881 112.623C56.1881 112.623 56.1881 112.623 56.1881 112.623C56.1881 112.623 56.1881 112.623 56.1881 112.623C56.1881 112.623 56.1881 112.623 56.1881 112.623C56.1881 112.623 56.1881 112.623 56.1881 112.623C56.1881 112.623 56.1881 112.623 56.1881 112.623C56.1881 112.623 56.1881 112.623 56.1881 112.623C56.1881 112.623 56.1881 112.623 56.1881 112.623C56.1881 112.623 56.1881 112.623 56.1881 112.623C56.1881 112.623 56.1881 112.623 56.1881 112.623C56.1881 112.623 56.1881 112.623 56.1881 112.623C56.1881 112.623 56.1881 112.623 56.1881 112.623C56.1881 112.623 56.1881 112.623 56.1881 112.623C56.1881 112.623 56.1881 112.623 56.1881 112.623C56.1881 112.623 56.1881 112.623 56.1881 112.623C56.1881 112.623 56.1881 112.623 56.1881 112.623C56.1881 112.623 56.1881 112.623 56.1881 112.623C56.1881 112.623 56.1881 112.623 56.1881 112.623C56.1881 112.623 56.1881 112.623 56.1881 112.623C56.1881 112.623 56.1881 112.623 56.1881 112.623C56.1881 112.623 56.1881 112.623 56.1881 112.623C56.1881 112.623 56.1881 112.623 56.1881 112.623C56.1881 112.623 56.1881 112.623 56.1881 112.623C56.1881 112.623 56.1881 112.623 56.1881 112.623C56.1881 112.623 56.1881 112.623 56.1881 112.623C56.1881 112.623 56.1881 112.623 56.1881 112.623C56.1881 112.623 56.1881 112.623 56.1881 112.623C56.1881 112.623 56.1881 112.623 56.1881 112.623C56.1881 112.623 56.1881 112.623 56.1881 112.623C56.1881 112.623 56.1881 112.623 56.1881 112.623C56.1881 112.623 56.1881 112.623 56.1881 112.623C56.1881 112.623 56.1881 112.623 56.1881 112.623C56.1881 112.623 56.1881 112.623 56.1881 112.623C56.1881 112.623 56.1881 112.623 56.1881 112.623C56.1881 112.623 56.1881 112.623 56.1881 112.623C56.1881 112.623 56.1881 112.623 56.188 112.623C56.188 112.623 56.188 112.623 56.188 112.623C56.188 112.623 56.188 112.623 56.188 112.623C56.188 112.623 56.188 112.623 56.188 112.623C56.188 112.623 56.188 112.623 56.188 112.623C56.188 112.623 56.188 112.623 56.188 112.623C56.188 112.623 56.188 112.623 56.188 112.623C56.188 112.623 56.188 112.623 56.188 112.623C56.188 112.623 56.188 112.623 56.188 112.623C56.188 112.623 56.188 112.623 56.188 112.623C56.188 112.623 56.188 112.623 56.188 112.623C56.188 112.623 56.188 112.623 56.188 112.623C56.188 112.623 56.188 112.623 56.188 112.623C56.188 112.623 56.188 112.623 56.188 112.623C56.188 112.623 56.188 112.623 56.188 112.623C56.188 112.623 56.188 112.623 56.188 112.623C56.188 112.623 56.188 112.623 56.188 112.623C56.188 112.623 56.188 112.623 56.188 112.623C56.188 112.623 56.188 112.623 56.188 112.623C56.188 112.623 56.188 112.623 56.188 112.623C56.188 112.623 56.188 112.623 56.188 112.623C56.188 112.623 56.188 112.623 56.188 112.623C56.188 112.623 56.188 112.623 56.188 112.623C56.188 112.623 56.188 112.623 56.188 112.623C56.188 112.623 56.188 112.623 56.188 112.623C56.188 112.623 56.188 112.623 56.188 112.623C56.188 112.623 56.188 112.623 56.188 112.623C56.188 112.623 56.188 112.623 56.188 112.623C56.188 112.623 56.188 112.623 56.188 112.623C56.188 112.623 56.188 112.623 56.188 112.623C56.188 112.623 56.188 112.623 56.188 112.623C56.188 112.623 56.188 112.623 56.188 112.623C56.188 112.623 56.188 112.623 56.188 112.623C56.188 112.623 56.188 112.623 56.188 112.623C56.188 112.623 56.188 112.623 56.188 112.623C56.188 112.623 56.188 112.623 56.188 112.623C56.188 112.623 56.188 112.623 56.188 112.623C56.188 112.623 56.188 112.623 56.188 112.623C56.188 112.623 56.188 112.623 56.188 112.623C56.188 112.623 56.188 112.623 56.188 112.623C56.188 112.623 56.188 112.623 56.188 112.623C56.188 112.623 56.188 112.623 56.188 112.623C56.188 112.623 56.188 112.623 56.188 112.623C56.188 112.623 56.188 112.623 56.188 112.623C56.188 112.623 56.188 112.623 56.188 112.623C56.188 112.623 56.188 112.623 56.188 112.623C56.188 112.623 56.188 112.623 56.188 112.623C56.188 112.623 56.188 112.623 56.188 112.623C56.188 112.623 56.188 112.623 56.188 112.623C56.188 112.623 56.188 112.623 56.188 112.623C56.188 112.623 56.188 112.623 56.188 112.623C56.188 112.623 56.188 112.623 56.188 112.623C56.188 112.623 56.188 112.623 56.188 112.623C56.188 112.623 56.188 112.623 56.188 112.623C56.188 112.623 56.188 112.623 56.188 112.623C56.188 112.623 56.188 112.623 56.188 112.623C56.188 112.623 56.188 112.623 56.188 112.623C56.188 112.623 56.188 112.623 56.188 112.623V114.623C56.188 114.623 56.188 114.623 56.188 114.623C56.188 114.623 56.188 114.623 56.188 114.623C56.188 114.623 56.188 114.623 56.188 114.623C56.188 114.623 56.188 114.623 56.188 114.623C56.188 114.623 56.188 114.623 56.188 114.623C56.188 114.623 56.188 114.623 56.188 114.623C56.188 114.623 56.188 114.623 56.188 114.623C56.188 114.623 56.188 114.623 56.188 114.623C56.188 114.623 56.188 114.623 56.188 114.623C56.188 114.623 56.188 114.623 56.188 114.623C56.188 114.623 56.188 114.623 56.188 114.623C56.188 114.623 56.188 114.623 56.188 114.623C56.188 114.623 56.188 114.623 56.188 114.623C56.188 114.623 56.188 114.623 56.188 114.623C56.188 114.623 56.188 114.623 56.188 114.623C56.188 114.623 56.188 114.623 56.188 114.623C56.188 114.623 56.188 114.623 56.188 114.623C56.188 114.623 56.188 114.623 56.188 114.623C56.188 114.623 56.188 114.623 56.188 114.623C56.188 114.623 56.188 114.623 56.188 114.623C56.188 114.623 56.188 114.623 56.188 114.623C56.188 114.623 56.188 114.623 56.188 114.623C56.188 114.623 56.188 114.623 56.188 114.623C56.188 114.623 56.188 114.623 56.188 114.623C56.188 114.623 56.188 114.623 56.188 114.623C56.188 114.623 56.188 114.623 56.188 114.623C56.188 114.623 56.188 114.623 56.188 114.623C56.188 114.623 56.188 114.623 56.188 114.623C56.188 114.623 56.188 114.623 56.188 114.623C56.188 114.623 56.188 114.623 56.188 114.623C56.188 114.623 56.188 114.623 56.188 114.623C56.188 114.623 56.188 114.623 56.188 114.623C56.188 114.623 56.188 114.623 56.188 114.623C56.188 114.623 56.188 114.623 56.188 114.623C56.188 114.623 56.188 114.623 56.188 114.623C56.188 114.623 56.188 114.623 56.188 114.623C56.188 114.623 56.188 114.623 56.188 114.623C56.188 114.623 56.188 114.623 56.188 114.623C56.188 114.623 56.188 114.623 56.188 114.623C56.188 114.623 56.188 114.623 56.188 114.623C56.188 114.623 56.188 114.623 56.188 114.623C56.188 114.623 56.188 114.623 56.188 114.623C56.188 114.623 56.188 114.623 56.188 114.623C56.188 114.623 56.188 114.623 56.188 114.623C56.188 114.623 56.188 114.623 56.188 114.623C56.188 114.623 56.188 114.623 56.188 114.623C56.188 114.623 56.188 114.623 56.188 114.623C56.188 114.623 56.188 114.623 56.188 114.623C56.188 114.623 56.188 114.623 56.188 114.623C56.188 114.623 56.188 114.623 56.188 114.623C56.188 114.623 56.188 114.623 56.188 114.623C56.188 114.623 56.188 114.623 56.188 114.623C56.188 114.623 56.188 114.623 56.188 114.623C56.188 114.623 56.188 114.623 56.188 114.623C56.188 114.623 56.188 114.623 56.188 114.623C56.188 114.623 56.188 114.623 56.188 114.623C56.188 114.623 56.188 114.623 56.188 114.623C56.1881 114.623 56.1881 114.623 56.1881 114.623C56.1881 114.623 56.1881 114.623 56.1881 114.623C56.1881 114.623 56.1881 114.623 56.1881 114.623C56.1881 114.623 56.1881 114.623 56.1881 114.623C56.1881 114.623 56.1881 114.623 56.1881 114.623C56.1881 114.623 56.1881 114.623 56.1881 114.623C56.1881 114.623 56.1881 114.623 56.1881 114.623C56.1881 114.623 56.1881 114.623 56.1881 114.623C56.1881 114.623 56.1881 114.623 56.1881 114.623C56.1881 114.623 56.1881 114.623 56.1881 114.623C56.1881 114.623 56.1881 114.623 56.1881 114.623C56.1881 114.623 56.1881 114.623 56.1881 114.623C56.1881 114.623 56.1881 114.623 56.1881 114.623C56.1881 114.623 56.1881 114.623 56.1881 114.623C56.1881 114.623 56.1881 114.623 56.1881 114.623C56.1881 114.623 56.1881 114.623 56.1881 114.623C56.1881 114.623 56.1881 114.623 56.1881 114.623C56.1881 114.623 56.1881 114.623 56.1881 114.623C56.1881 114.623 56.1881 114.623 56.1881 114.623C56.1881 114.623 56.1881 114.623 56.1881 114.623C56.1881 114.623 56.1881 114.623 56.1881 114.623C56.1881 114.623 56.1881 114.623 56.1881 114.623C56.1881 114.623 56.1881 114.623 56.1881 114.623C56.1881 114.623 56.1881 114.623 56.1881 114.623C56.1881 114.623 56.1881 114.623 56.1881 114.623C56.1881 114.623 56.1881 114.623 56.1881 114.623C56.1881 114.623 56.1881 114.623 56.1881 114.623C56.1881 114.623 56.1881 114.623 56.1881 114.623C56.1881 114.623 56.1881 114.623 56.1881 114.623C56.1881 114.623 56.1881 114.623 56.1881 114.623C56.1881 114.623 56.1881 114.623 56.1881 114.623C56.1881 114.623 56.1881 114.623 56.1881 114.623C56.1881 114.623 56.1881 114.623 56.1881 114.623C56.1881 114.623 56.1881 114.623 56.1881 114.623C56.1881 114.623 56.1881 114.623 56.1881 114.623C56.1881 114.623 56.1881 114.623 56.1881 114.623C56.1881 114.623 56.1881 114.623 56.1881 114.623C56.1881 114.623 56.1881 114.623 56.1881 114.623C56.1881 114.623 56.1881 114.623 56.1881 114.623C56.1881 114.623 56.1881 114.623 56.1881 114.623C56.1881 114.623 56.1881 114.623 56.1881 114.623C56.1881 114.623 56.1881 114.623 56.1881 114.623C56.1881 114.623 56.1881 114.623 56.1881 114.623C56.1881 114.623 56.1881 114.623 56.1881 114.623C56.1881 114.623 56.1881 114.623 56.1881 114.623C56.1881 114.623 56.1881 114.623 56.1881 114.623C56.1881 114.623 56.1881 114.623 56.1881 114.623C56.1881 114.623 56.1881 114.623 56.1881 114.623C56.1881 114.623 56.1881 114.623 56.1881 114.623C56.1881 114.623 56.1881 114.623 56.1881 114.623C56.1881 114.623 56.1881 114.623 56.1881 114.623C56.1881 114.623 56.1881 114.623 56.1881 114.623C56.1881 114.623 56.1881 114.623 56.1881 114.623C56.1881 114.623 56.1881 114.623 56.1881 114.623C56.1881 114.623 56.1881 114.623 56.1881 114.623C56.1881 114.623 56.1881 114.623 56.1881 114.623C56.1881 114.623 56.1881 114.623 56.1881 114.623C56.1881 114.623 56.1881 114.623 56.1881 114.623C56.1881 114.623 56.1881 114.623 56.1881 114.623C56.1881 114.623 56.1881 114.623 56.1881 114.623C56.1881 114.623 56.1881 114.623 56.1881 114.623C56.1881 114.623 56.1881 114.623 56.1881 114.623C56.1881 114.623 56.1881 114.623 56.1881 114.623C56.1881 114.623 56.1881 114.623 56.1881 114.623C56.1881 114.623 56.1881 114.623 56.1881 114.623C56.1881 114.623 56.1881 114.623 56.1881 114.623C56.1881 114.623 56.1881 114.623 56.1881 114.623C56.1881 114.623 56.1881 114.623 56.1881 114.623C56.1881 114.623 56.1881 114.623 56.1881 114.623C56.1881 114.623 56.1881 114.623 56.1881 114.623C56.1881 114.623 56.1881 114.623 56.1881 114.623C56.1881 114.623 56.1881 114.623 56.1881 114.623C56.1881 114.623 56.1881 114.623 56.1881 114.623C56.1881 114.623 56.1881 114.623 56.1881 114.623C56.1881 114.623 56.1881 114.623 56.1881 114.623C56.1881 114.623 56.1881 114.623 56.1881 114.623C56.1881 114.623 56.1881 114.623 56.1881 114.623C56.1881 114.623 56.1881 114.623 56.1881 114.623C56.1881 114.623 56.1881 114.623 56.1881 114.623C56.1881 114.623 56.1881 114.623 56.1881 114.623C56.1881 114.623 56.1881 114.623 56.1881 114.623C56.1881 114.623 56.1881 114.623 56.1881 114.623C56.1881 114.623 56.1881 114.623 56.1881 114.623C56.1881 114.623 56.1881 114.623 56.1881 114.623C56.1881 114.623 56.1881 114.623 56.1881 114.623C56.1881 114.623 56.1881 114.623 56.1881 114.623C56.1881 114.623 56.1881 114.623 56.1881 114.623C56.1881 114.623 56.1881 114.623 56.1881 114.623C56.1881 114.623 56.1881 114.623 56.1881 114.623C56.1881 114.623 56.1881 114.623 56.1881 114.623C56.1881 114.623 56.1881 114.623 56.1881 114.623C56.1881 114.623 56.1881 114.623 56.1881 114.623C56.1881 114.623 56.1881 114.623 56.1882 114.623C56.1882 114.623 56.1882 114.623 56.1882 114.623C56.1882 114.623 56.1882 114.623 56.1882 114.623C56.1882 114.623 56.1882 114.623 56.1882 114.623C56.1882 114.623 56.1882 114.623 56.1882 114.623C56.1882 114.623 56.1882 114.623 56.1882 114.623C56.1882 114.623 56.1882 114.623 56.1882 114.623C56.1882 114.623 56.1882 114.623 56.1882 114.623C56.1882 114.623 56.1882 114.623 56.1882 114.623C56.1882 114.623 56.1882 114.623 56.1882 114.623C56.1882 114.623 56.1882 114.623 56.1882 114.623C56.1882 114.623 56.1882 114.623 56.1882 114.623C56.1882 114.623 56.1882 114.623 56.1882 114.623C56.1882 114.623 56.1882 114.623 56.1882 114.623C56.1882 114.623 56.1882 114.623 56.1882 114.623C56.1882 114.623 56.1882 114.623 56.1882 114.623C56.1882 114.623 56.1882 114.623 56.1882 114.623C56.1882 114.623 56.1882 114.623 56.1882 114.623C56.1882 114.623 56.1882 114.623 56.1882 114.623C56.1882 114.623 56.1882 114.623 56.1882 114.623C56.1882 114.623 56.1882 114.623 56.1882 114.623C56.1882 114.623 56.1882 114.623 56.1882 114.623C56.1882 114.623 56.1882 114.623 56.1882 114.623C56.1882 114.623 56.1882 114.623 56.1882 114.623C56.1882 114.623 56.1882 114.623 56.1882 114.623C56.1882 114.623 56.1882 114.623 56.1882 114.623C56.1882 114.623 56.1882 114.623 56.1882 114.623C56.1882 114.623 56.1882 114.623 56.1882 114.623C56.1882 114.623 56.1882 114.623 56.1882 114.623C56.1882 114.623 56.1882 114.623 56.1882 114.623C56.1882 114.623 56.1882 114.623 56.1882 114.623C56.1882 114.623 56.1882 114.623 56.1882 114.623C56.1882 114.623 56.1882 114.623 56.1882 114.623C56.1882 114.623 56.1882 114.623 56.1882 114.623C56.1882 114.623 56.1882 114.623 56.1882 114.623C56.1882 114.623 56.1882 114.623 56.1882 114.623C56.1882 114.623 56.1882 114.623 56.1882 114.623C56.1882 114.623 56.1882 114.623 56.1882 114.623C56.1882 114.623 56.1882 114.623 56.1882 114.623C56.1882 114.623 56.1882 114.623 56.1882 114.623C56.1882 114.623 56.1882 114.623 56.1882 114.623C56.1882 114.623 56.1882 114.623 56.1882 114.623C56.1882 114.623 56.1882 114.623 56.1882 114.623C56.1882 114.623 56.1882 114.623 56.1882 114.623C56.1882 114.623 56.1882 114.623 56.1882 114.623C56.1882 114.623 56.1882 114.623 56.1882 114.623C56.1882 114.623 56.1882 114.623 56.1882 114.623C56.1882 114.623 56.1882 114.623 56.1882 114.623C56.1882 114.623 56.1882 114.623 56.1882 114.623C56.1882 114.623 56.1882 114.623 56.1882 114.623C56.1882 114.623 56.1882 114.623 56.1882 114.623C56.1882 114.623 56.1882 114.623 56.1882 114.623C56.1882 114.623 56.1882 114.623 56.1882 114.623C56.1882 114.623 56.1882 114.623 56.1882 114.623C56.1882 114.623 56.1882 114.623 56.1882 114.623C56.1882 114.623 56.1882 114.623 56.1882 114.623C56.1882 114.623 56.1882 114.623 56.1882 114.623C56.1882 114.623 56.1882 114.623 56.1882 114.623C56.1882 114.623 56.1882 114.623 56.1882 114.623C56.1882 114.623 56.1882 114.623 56.1882 114.623C56.1882 114.623 56.1882 114.623 56.1882 114.623C56.1882 114.623 56.1882 114.623 56.1882 114.623C56.1882 114.623 56.1882 114.623 56.1882 114.623C56.1882 114.623 56.1882 114.623 56.1882 114.623C56.1882 114.623 56.1882 114.623 56.1882 114.623C56.1882 114.623 56.1882 114.623 56.1882 114.623C56.1882 114.623 56.1882 114.623 56.1882 114.623C56.1882 114.623 56.1882 114.623 56.1882 114.623C56.1882 114.623 56.1882 114.623 56.1882 114.623C56.1882 114.623 56.1882 114.623 56.1882 114.623C56.1882 114.623 56.1882 114.623 56.1882 114.623C56.1882 114.623 56.1882 114.623 56.1882 114.623C56.1882 114.623 56.1882 114.623 56.1882 114.623C56.1882 114.623 56.1882 114.623 56.1882 114.623C56.1882 114.623 56.1882 114.623 56.1882 114.623C56.1882 114.623 56.1882 114.623 56.1882 114.623C56.1882 114.623 56.1882 114.623 56.1882 114.623C56.1882 114.623 56.1882 114.623 56.1882 114.623C56.1882 114.623 56.1882 114.623 56.1882 114.623C56.1882 114.623 56.1882 114.623 56.1882 114.623C56.1882 114.623 56.1882 114.623 56.1882 114.623C56.1882 114.623 56.1882 114.623 56.1882 114.623C56.1882 114.623 56.1882 114.623 56.1882 114.623C56.1882 114.623 56.1882 114.623 56.1882 114.623C56.1882 114.623 56.1882 114.623 56.1882 114.623C56.1882 114.623 56.1882 114.623 56.1882 114.623C56.1882 114.623 56.1882 114.623 56.1882 114.623C56.1882 114.623 56.1882 114.623 56.1882 114.623C56.1882 114.623 56.1882 114.623 56.1882 114.623C56.1882 114.623 56.1882 114.623 56.1882 114.623C56.1882 114.623 56.1882 114.623 56.1882 114.623C56.1882 114.623 56.1882 114.623 56.1882 114.623C56.1882 114.623 56.1882 114.623 56.1882 114.623C56.1883 114.623 56.1883 114.623 56.1883 114.623C56.1883 114.623 56.1883 114.623 56.1883 114.623C56.1883 114.623 56.1883 114.623 56.1883 114.623C56.1883 114.623 56.1883 114.623 56.1883 114.623C56.1883 114.623 56.1883 114.623 56.1883 114.623C56.1883 114.623 56.1883 114.623 56.1883 114.623C56.1883 114.623 56.1883 114.623 56.1883 114.623C56.1883 114.623 56.1883 114.623 56.1883 114.623C56.1883 114.623 56.1883 114.623 56.1883 114.623C56.1883 114.623 56.1883 114.623 56.1883 114.623C56.1883 114.623 56.1883 114.623 56.1883 114.623C56.1883 114.623 56.1883 114.623 56.1883 114.623C56.1883 114.623 56.1883 114.623 56.1883 114.623C56.1883 114.623 56.1883 114.623 56.1883 114.623C56.1883 114.623 56.1883 114.623 56.1883 114.623C56.1883 114.623 56.1883 114.623 56.1883 114.623C56.1883 114.623 56.1883 114.623 56.1883 114.623C56.1883 114.623 56.1883 114.623 56.1883 114.623C56.1883 114.623 56.1883 114.623 56.1883 114.623C56.1883 114.623 56.1883 114.623 56.1883 114.623C56.1883 114.623 56.1883 114.623 56.1883 114.623C56.1883 114.623 56.1883 114.623 56.1883 114.623C56.1883 114.623 56.1883 114.623 56.1883 114.623C56.1883 114.623 56.1883 114.623 56.1883 114.623C56.1883 114.623 56.1883 114.623 56.1883 114.623C56.1883 114.623 56.1883 114.623 56.1883 114.623C56.1883 114.623 56.1883 114.623 56.1883 114.623C56.1883 114.623 56.1883 114.623 56.1883 114.623C56.1883 114.623 56.1883 114.623 56.1883 114.623C56.1883 114.623 56.1883 114.623 56.1883 114.623C56.1883 114.623 56.1883 114.623 56.1883 114.623C56.1883 114.623 56.1883 114.623 56.1883 114.623C56.1883 114.623 56.1883 114.623 56.1883 114.623C56.1883 114.623 56.1883 114.623 56.1883 114.623C56.1883 114.623 56.1883 114.623 56.1883 114.623C56.1883 114.623 56.1883 114.623 56.1883 114.623C56.1883 114.623 56.1883 114.623 56.1883 114.623C56.1883 114.623 56.1883 114.623 56.1883 114.623C56.1883 114.623 56.1883 114.623 56.1883 114.623C56.1883 114.623 56.1883 114.623 56.1883 114.623C56.1883 114.623 56.1883 114.623 56.1883 114.623C56.1883 114.623 56.1883 114.623 56.1883 114.623C56.1883 114.623 56.1883 114.623 56.1883 114.623C56.1883 114.623 56.1883 114.623 56.1883 114.623C56.1883 114.623 56.1883 114.623 56.1883 114.623C56.1883 114.623 56.1883 114.623 56.1883 114.623C56.1883 114.623 56.1883 114.623 56.1883 114.623C56.1883 114.623 56.1883 114.623 56.1883 114.623C56.1883 114.623 56.1883 114.623 56.1883 114.623C56.1883 114.623 56.1883 114.623 56.1883 114.623C56.1883 114.623 56.1883 114.623 56.1883 114.623C56.1883 114.623 56.1883 114.623 56.1883 114.623C56.1883 114.623 56.1883 114.623 56.1883 114.623C56.1883 114.623 56.1883 114.623 56.1883 114.623C56.1883 114.623 56.1883 114.623 56.1883 114.623C56.1883 114.623 56.1883 114.623 56.1883 114.623C56.1883 114.623 56.1883 114.623 56.1883 114.623C56.1883 114.623 56.1883 114.623 56.1883 114.623C56.1883 114.623 56.1883 114.623 56.1883 114.623C56.1883 114.623 56.1883 114.623 56.1883 114.623C56.1883 114.623 56.1883 114.623 56.1883 114.623C56.1883 114.623 56.1883 114.623 56.1883 114.623C56.1883 114.623 56.1883 114.623 56.1883 114.623C56.1883 114.623 56.1883 114.623 56.1883 114.623C56.1883 114.623 56.1883 114.623 56.1883 114.623C56.1883 114.623 56.1883 114.623 56.1883 114.623C56.1883 114.623 56.1883 114.623 56.1883 114.623C56.1883 114.623 56.1883 114.623 56.1883 114.623C56.1883 114.623 56.1883 114.623 56.1883 114.623C56.1883 114.623 56.1883 114.623 56.1883 114.623C56.1883 114.623 56.1883 114.623 56.1883 114.623C56.1883 114.623 56.1883 114.623 56.1883 114.623C56.1883 114.623 56.1883 114.623 56.1883 114.623C56.1883 114.623 56.1883 114.623 56.1883 114.623C56.1883 114.623 56.1883 114.623 56.1883 114.623C56.1883 114.623 56.1883 114.623 56.1883 114.623C56.1883 114.623 56.1883 114.623 56.1883 114.623C56.1883 114.623 56.1883 114.623 56.1883 114.623C56.1883 114.623 56.1883 114.623 56.1883 114.623C56.1883 114.623 56.1883 114.623 56.1883 114.623C56.1883 114.623 56.1883 114.623 56.1883 114.623C56.1883 114.623 56.1883 114.623 56.1883 114.623C56.1883 114.623 56.1883 114.623 56.1883 114.623C56.1883 114.623 56.1883 114.623 56.1883 114.623C56.1883 114.623 56.1883 114.623 56.1883 114.623C56.1883 114.623 56.1883 114.623 56.1883 114.623C56.1883 114.623 56.1883 114.623 56.1883 114.623C56.1883 114.623 56.1883 114.623 56.1883 114.623C56.1883 114.623 56.1883 114.623 56.1883 114.623C56.1883 114.623 56.1883 114.623 56.1883 114.623C56.1883 114.623 56.1883 114.623 56.1883 114.623C56.1883 114.623 56.1883 114.623 56.1883 114.623C56.1883 114.623 56.1883 114.623 56.1884 114.623C56.1884 114.623 56.1884 114.623 56.1884 114.623C56.1884 114.623 56.1884 114.623 56.1884 114.623C56.1884 114.623 56.1884 114.623 56.1884 114.623C56.1884 114.623 56.1884 114.623 56.1884 114.623C56.1884 114.623 56.1884 114.623 56.1884 114.623C56.1884 114.623 56.1884 114.623 56.1884 114.623C56.1884 114.623 56.1884 114.623 56.1884 114.623C56.1884 114.623 56.1884 114.623 56.1884 114.623C56.1884 114.623 56.1884 114.623 56.1884 114.623C56.1884 114.623 56.1884 114.623 56.1884 114.623C56.1884 114.623 56.1884 114.623 56.1884 114.623C56.1884 114.623 56.1884 114.623 56.1884 114.623C56.1884 114.623 56.1884 114.623 56.1884 114.623C56.1884 114.623 56.1884 114.623 56.1884 114.623C56.1884 114.623 56.1884 114.623 56.1884 114.623C56.1884 114.623 56.1884 114.623 56.1884 114.623C56.1884 114.623 56.1884 114.623 56.1884 114.623C56.1884 114.623 56.1884 114.623 56.1884 114.623C56.1884 114.623 56.1884 114.623 56.1884 114.623C56.1884 114.623 56.1884 114.623 56.1884 114.623C56.1884 114.623 56.1884 114.623 56.1884 114.623C56.1884 114.623 56.1884 114.623 56.1884 114.623C56.1884 114.623 56.1884 114.623 56.1884 114.623C56.1884 114.623 56.1884 114.623 56.1884 114.623C56.1884 114.623 56.1884 114.623 56.1884 114.623C56.1884 114.623 56.1884 114.623 56.1884 114.623C56.1884 114.623 56.1884 114.623 56.1884 114.623C56.1884 114.623 56.1884 114.623 56.1884 114.623C56.1884 114.623 56.1884 114.623 56.1884 114.623C56.1884 114.623 56.1884 114.623 56.1884 114.623C56.1884 114.623 56.1884 114.623 56.1884 114.623C56.1884 114.623 56.1884 114.623 56.1884 114.623C56.1884 114.623 56.1884 114.623 56.1884 114.623C56.1884 114.623 56.1884 114.623 56.1884 114.623C56.1884 114.623 56.1884 114.623 56.1884 114.623C56.1884 114.623 56.1884 114.623 56.1884 114.623C56.1884 114.623 56.1884 114.623 56.1884 114.623C56.1884 114.623 56.1884 114.623 56.1884 114.623C56.1884 114.623 56.1884 114.623 56.1884 114.623C56.1884 114.623 56.1884 114.623 56.1884 114.623C56.1884 114.623 56.1884 114.623 56.1884 114.623C56.1884 114.623 56.1884 114.623 56.1884 114.623C56.1884 114.623 56.1884 114.623 56.1884 114.623C56.1884 114.623 56.1884 114.623 56.1884 114.623C56.1884 114.623 56.1884 114.623 56.1884 114.623C56.1884 114.623 56.1884 114.623 56.1884 114.623C56.1884 114.623 56.1884 114.623 56.1884 114.623C56.1884 114.623 56.1884 114.623 56.1884 114.623C56.1884 114.623 56.1884 114.623 56.1884 114.623C56.1884 114.623 56.1884 114.623 56.1884 114.623C56.1884 114.623 56.1884 114.623 56.1884 114.623C56.1884 114.623 56.1884 114.623 56.1884 114.623C56.1884 114.623 56.1884 114.623 56.1884 114.623C56.1884 114.623 56.1884 114.623 56.1884 114.623C56.1884 114.623 56.1884 114.623 56.1884 114.623C56.1884 114.623 56.1884 114.623 56.1884 114.623C56.1884 114.623 56.1884 114.623 56.1884 114.623C56.1884 114.623 56.1884 114.623 56.1884 114.623C56.1884 114.623 56.1884 114.623 56.1884 114.623C56.1884 114.623 56.1884 114.623 56.1884 114.623C56.1884 114.623 56.1884 114.623 56.1884 114.623C56.1884 114.623 56.1884 114.623 56.1884 114.623C56.1884 114.623 56.1884 114.623 56.1884 114.623C56.1884 114.623 56.1884 114.623 56.1884 114.623C56.1884 114.623 56.1884 114.623 56.1884 114.623C56.1884 114.623 56.1884 114.623 56.1884 114.623C56.1884 114.623 56.1884 114.623 56.1884 114.623C56.1884 114.623 56.1884 114.623 56.1884 114.623C56.1884 114.623 56.1884 114.623 56.1884 114.623C56.1884 114.623 56.1884 114.623 56.1884 114.623C56.1884 114.623 56.1884 114.623 56.1884 114.623C56.1884 114.623 56.1884 114.623 56.1884 114.623C56.1884 114.623 56.1884 114.623 56.1884 114.623C56.1884 114.623 56.1884 114.623 56.1884 114.623C56.1884 114.623 56.1884 114.623 56.1884 114.623C56.1884 114.623 56.1884 114.623 56.1884 114.623C56.1884 114.623 56.1884 114.623 56.1884 114.623C56.1884 114.623 56.1884 114.623 56.1884 114.623C56.1884 114.623 56.1884 114.623 56.1884 114.623C56.1884 114.623 56.1884 114.623 56.1884 114.623C56.1884 114.623 56.1884 114.623 56.1884 114.623C56.1884 114.623 56.1884 114.623 56.1884 114.623C56.1884 114.623 56.1884 114.623 56.1884 114.623C56.1884 114.623 56.1884 114.623 56.1884 114.623C56.1884 114.623 56.1884 114.623 56.1884 114.623C56.1884 114.623 56.1884 114.623 56.1884 114.623C56.1884 114.623 56.1884 114.623 56.1884 114.623C56.1884 114.623 56.1884 114.623 56.1884 114.623C56.1884 114.623 56.1884 114.623 56.1884 114.623C56.1884 114.623 56.1884 114.623 56.1884 114.623C56.1884 114.623 56.1884 114.623 56.1884 114.623C56.1884 114.623 56.1884 114.623 56.1884 114.623C56.1884 114.623 56.1885 114.623 56.1885 114.623C56.1885 114.623 56.1885 114.623 56.1885 114.623C56.1885 114.623 56.1885 114.623 56.1885 114.623C56.1885 114.623 56.1885 114.623 56.1885 114.623C56.1885 114.623 56.1885 114.623 56.1885 114.623C56.1885 114.623 56.1885 114.623 56.1885 114.623C56.1885 114.623 56.1885 114.623 56.1885 114.623C56.1885 114.623 56.1885 114.623 56.1885 114.623C56.1885 114.623 56.1885 114.623 56.1885 114.623C56.1885 114.623 56.1885 114.623 56.1885 114.623C56.1885 114.623 56.1885 114.623 56.1885 114.623C56.1885 114.623 56.1885 114.623 56.1885 114.623C56.1885 114.623 56.1885 114.623 56.1885 114.623C56.1885 114.623 56.1885 114.623 56.1885 114.623C56.1885 114.623 56.1885 114.623 56.1885 114.623C56.1885 114.623 56.1885 114.623 56.1885 114.623C56.1885 114.623 56.1885 114.623 56.1885 114.623C56.1885 114.623 56.1885 114.623 56.1885 114.623C56.1885 114.623 56.1885 114.623 56.1885 114.623C56.1885 114.623 56.1885 114.623 56.1885 114.623C56.1885 114.623 56.1885 114.623 56.1885 114.623C56.1885 114.623 56.1885 114.623 56.1885 114.623C56.1885 114.623 56.1885 114.623 56.1885 114.623C56.1885 114.623 56.1885 114.623 56.1885 114.623C56.1885 114.623 56.1885 114.623 56.1885 114.623C56.1885 114.623 56.1885 114.623 56.1885 114.623C56.1885 114.623 56.1885 114.623 56.1885 114.623C56.1885 114.623 56.1885 114.623 56.1885 114.623C56.1885 114.623 56.1885 114.623 56.1885 114.623C56.1885 114.623 56.1885 114.623 56.1885 114.623C56.1885 114.623 56.1885 114.623 56.1885 114.623C56.1885 114.623 56.1885 114.623 56.1885 114.623C56.1885 114.623 56.1885 114.623 56.1885 114.623C56.1885 114.623 56.1885 114.623 56.1885 114.623C56.1885 114.623 56.1885 114.623 56.1885 114.623C56.1885 114.623 56.1885 114.623 56.1885 114.623C56.1885 114.623 56.1885 114.623 56.1885 114.623C56.1885 114.623 56.1885 114.623 56.1885 114.623C56.1885 114.623 56.1885 114.623 56.1885 114.623C56.1885 114.623 56.1885 114.623 56.1885 114.623C56.1885 114.623 56.1885 114.623 56.1885 114.623C56.1885 114.623 56.1885 114.623 56.1885 114.623C56.1885 114.623 56.1885 114.623 56.1885 114.623C56.1885 114.623 56.1885 114.623 56.1885 114.623C56.1885 114.623 56.1885 114.623 56.1885 114.623C56.1885 114.623 56.1885 114.623 56.1885 114.623C56.1885 114.623 56.1885 114.623 56.1885 114.623C56.1885 114.623 56.1885 114.623 56.1885 114.623C56.1885 114.623 56.1885 114.623 56.1885 114.623C56.1885 114.623 56.1885 114.623 56.1885 114.623C56.1885 114.623 56.1885 114.623 56.1885 114.623C56.1885 114.623 56.1885 114.623 56.1885 114.623C56.1885 114.623 56.1885 114.623 56.1885 114.623C56.1885 114.623 56.1885 114.623 56.1885 114.623C56.1885 114.623 56.1885 114.623 56.1885 114.623C56.1885 114.623 56.1885 114.623 56.1885 114.623C56.1885 114.623 56.1885 114.623 56.1885 114.623C56.1885 114.623 56.1885 114.623 56.1885 114.623C56.1885 114.623 56.1885 114.623 56.1885 114.623C56.1885 114.623 56.1885 114.623 56.1885 114.623C56.1885 114.623 56.1885 114.623 56.1885 114.623C56.1885 114.623 56.1885 114.623 56.1885 114.623C56.1885 114.623 56.1885 114.623 56.1885 114.623C56.1885 114.623 56.1885 114.623 56.1885 114.623C56.1885 114.623 56.1885 114.623 56.1885 114.623C56.1885 114.623 56.1885 114.623 56.1885 114.623C56.1885 114.623 56.1885 114.623 56.1885 114.623C56.1885 114.623 56.1885 114.623 56.1885 114.623C56.1885 114.623 56.1885 114.623 56.1885 114.623C56.1885 114.623 56.1885 114.623 56.1885 114.623C56.1885 114.623 56.1885 114.623 56.1885 114.623C56.1885 114.623 56.1885 114.623 56.1885 114.623C56.1885 114.623 56.1885 114.623 56.1885 114.623C56.1885 114.623 56.1885 114.623 56.1885 114.623C56.1885 114.623 56.1885 114.623 56.1885 114.623C56.1885 114.623 56.1885 114.623 56.1885 114.623C56.1885 114.623 56.1885 114.623 56.1885 114.623C56.1885 114.623 56.1885 114.623 56.1885 114.623C56.1885 114.623 56.1885 114.623 56.1885 114.623C56.1885 114.623 56.1885 114.623 56.1885 114.623C56.1885 114.623 56.1885 114.623 56.1885 114.623C56.1885 114.623 56.1885 114.623 56.1885 114.623C56.1885 114.623 56.1885 114.623 56.1885 114.623C56.1885 114.623 56.1885 114.623 56.1885 114.623C56.1885 114.623 56.1885 114.623 56.1885 114.623V112.623ZM112 56.8116C112 87.6355 87.0124 112.623 56.1885 112.623V114.623C88.117 114.623 114 88.7401 114 56.8116H112ZM56.1885 1C87.0124 1 112 25.9877 112 56.8116H114C114 24.8831 88.117 -1 56.1885 -1V1ZM56.188 1C56.1881 1 56.1882 1 56.1883 1C56.1884 1 56.1885 1 56.1885 1V-1C56.1884 -1 56.1883 -1 56.1883 -1C56.1882 -1 56.1881 -1 56.188 -1V1ZM55.188 2.63496e-09V113.623H57.188V2.63496e-09H55.188Z" fill="#DF991B" mask="url(#path-2-inside-1_3617_3)"/>
<circle cx="56" cy="56.8115" r="56" fill="white"/>
<circle cx="57.0002" cy="61.0012" r="32.4074" fill="black"/>
<circle cx="57" cy="61" r="34.5" stroke="black"/>
<path d="M67.4431 74.068H69.2804C71.7592 74.068 73.7131 73.3833 75.1421 72.014C76.5711 70.6446 78.0001 68.2631 79.4291 64.8397C79.6332 64.3931 79.8082 64.1848 80.0415 64.1848C80.0998 64.1848 80.1582 64.1848 80.2165 64.1848C80.2748 64.1848 80.304 64.1848 80.3332 64.1848L78.1168 75.2588C76.8627 74.8718 74.3839 74.6634 70.6802 74.6634H54.4072V74.4252C54.4072 74.2168 54.6114 74.0978 55.0488 73.9787C55.4863 73.8894 55.982 73.7703 56.507 73.681C57.0611 73.5619 57.5277 73.2047 57.9651 72.6093C58.4026 72.014 58.6067 71.1804 58.6067 70.079V50.6399C58.6067 49.7469 58.4026 49.0622 57.9651 48.5859C57.5277 48.1096 57.0611 47.8119 56.5361 47.7226C56.0112 47.6333 55.5446 47.5142 55.1071 47.4249C54.6697 47.3058 54.4656 47.157 54.4656 46.9784V46.7402H68.143V46.9784C68.143 47.1868 67.9097 47.3356 67.4723 47.4249C67.0348 47.544 66.539 47.6333 66.0141 47.7226C65.4892 47.8119 64.9934 48.1096 64.556 48.6157C64.1185 49.1217 63.8852 49.8064 63.8852 50.6697C63.8852 52.5154 63.8852 55.8495 63.8852 60.672C63.8852 65.4946 63.8852 68.7989 63.8852 70.6744C63.8852 71.7758 64.1768 72.6391 64.7309 73.2047C65.285 73.8001 66.2183 74.068 67.4723 74.068H67.4431Z" fill="white"/>
<path fill-rule="evenodd" clip-rule="evenodd" d="M49.2227 73.7543C47.1361 73.4991 45.6356 72.767 44.7355 71.5438C43.5935 69.9918 43.0078 67.7371 43.0078 64.7504V52.54C43.0078 51.398 43.1835 50.4317 43.5056 49.5825C43.652 49.0262 43.9449 48.5577 44.3548 48.2356C44.7648 47.9135 45.204 47.7085 45.6432 47.6499C46.0824 47.5914 46.4631 47.5035 46.8145 47.4157C47.1366 47.2985 47.3123 47.1814 47.3123 46.9764V46.7422H33.667V46.9764C33.667 47.1521 33.9012 47.2985 34.3112 47.4157C34.4149 47.4379 34.5243 47.462 34.6379 47.487C34.9731 47.5609 35.3449 47.6429 35.7167 47.7085C36.2145 47.7963 36.7123 48.0891 37.1222 48.5577C37.5615 49.0262 37.7664 49.6996 37.7664 50.5781V64.4576C37.7664 71.1467 41.5944 74.5708 49.2227 74.7022V73.7543Z" fill="white"/>
</svg>
